<?xml version="1.0" standalone="no"?>
<!DOCTYPE svg PUBLIC "-//W3C//DTD SVG 20010904//EN"
 "http://www.w3.org/TR/2001/REC-SVG-20010904/DTD/svg10.dtd">
<svg version="1.0" xmlns="http://www.w3.org/2000/svg"
 width="512.000000pt" height="512.000000pt" viewBox="0 0 512.000000 512.000000"
 preserveAspectRatio="xMidYMid meet">

<g transform="translate(0.000000,512.000000) scale(0.100000,-0.100000)"
fill="gray" stroke="none">
<path d="M2760 4354 c-114 -18 -251 -74 -341 -140 -68 -50 -162 -154 -204
-226 -20 -34 -50 -100 -65 -147 l-29 -86 -93 -12 c-449 -57 -928 -279 -1378
-638 -238 -190 -590 -541 -631 -630 -40 -86 -19 -129 143 -305 612 -663 1331
-1062 1991 -1106 l102 -7 75 -72 c89 -85 166 -137 258 -172 126 -47 187 -53
558 -53 326 0 347 1 384 20 48 25 80 81 80 142 0 143 -60 316 -149 434 l-38
51 95 59 c174 107 397 275 603 454 l46 40 7 -66 c8 -83 53 -217 97 -290 83
-138 246 -277 434 -370 137 -69 202 -80 258 -45 45 27 59 49 90 141 46 139 61
234 61 385 0 115 -4 154 -22 219 -38 134 -94 229 -197 332 -49 50 -106 102
-125 117 l-35 27 35 27 c19 15 76 67 125 117 103 103 159 198 197 332 18 65
22 104 22 219 0 151 -15 246 -61 385 -31 92 -45 114 -90 141 -56 35 -121 24
-258 -45 -188 -93 -351 -232 -433 -369 -43 -71 -81 -182 -96 -276 l-12 -74
-84 74 c-263 233 -580 450 -832 570 -27 13 -48 25 -48 29 0 3 21 16 48 30 26
13 88 65 138 115 77 76 98 104 137 185 53 108 74 181 83 290 8 96 -14 148 -76
180 -37 19 -57 20 -392 19 -194 -1 -364 -3 -378 -5z m520 -300 c0 -3 -14 -33
-32 -66 -55 -103 -175 -191 -296 -217 -55 -11 -512 -16 -512 -5 0 3 14 33 32
66 53 99 159 181 277 213 47 14 531 21 531 9z m-819 -609 c265 -35 517 -123
786 -275 188 -107 414 -263 538 -373 l40 -36 -95 25 c-514 132 -1066 204
-1557 204 -123 0 -173 3 -173 11 0 22 -109 235 -158 309 -33 49 -46 77 -39 81
24 13 153 41 246 54 129 17 283 18 412 0z m2359 -331 c1 -145 -46 -262 -142
-358 -63 -62 -175 -143 -185 -133 -28 29 -31 259 -5 345 36 113 114 206 247
293 l60 39 12 -62 c7 -35 12 -91 13 -124z m-3290 118 c130 -174 212 -357 257
-572 25 -118 25 -382 0 -500 -38 -183 -107 -351 -201 -491 -30 -46 -65 -94
-75 -107 l-20 -23 -83 42 c-302 151 -595 367 -888 656 l-175 173 170 168 c232
229 431 389 670 537 74 46 293 164 305 164 3 0 21 -21 40 -47z m1195 -571
c483 -50 943 -151 1394 -307 19 -6 -74 -101 -244 -248 -223 -193 -428 -340
-631 -454 l-91 -52 -55 20 c-97 34 -176 40 -526 40 -324 0 -345 -1 -382 -20
-26 -14 -47 -34 -61 -62 -19 -37 -21 -53 -15 -125 5 -75 4 -83 -11 -83 -50 0
-296 50 -309 62 -1 2 17 33 42 68 25 36 69 114 99 175 116 237 167 448 169
700 0 88 -3 196 -8 239 l-8 79 223 -6 c123 -4 310 -16 414 -26z m1833 -498
c139 -91 228 -214 253 -348 11 -60 6 -214 -8 -268 l-8 -27 -61 39 c-132 87
-210 180 -246 295 -17 51 -19 82 -16 192 4 118 10 154 24 154 3 0 31 -17 62
-37z m-1606 -814 c122 -26 258 -129 306 -231 12 -26 22 -50 22 -53 0 -10 -460
-5 -512 6 -121 26 -241 114 -296 217 -18 33 -32 63 -32 66 0 11 457 6 512 -5z"/>
<path d="M1288 2839 c-43 -22 -78 -81 -78 -129 0 -76 74 -150 150 -150 76 0
150 74 150 150 0 50 -35 107 -80 130 -49 25 -94 25 -142 -1z"/>
</g>
</svg>
