<?xml version="1.0" standalone="no"?>
<!DOCTYPE svg PUBLIC "-//W3C//DTD SVG 20010904//EN"
 "http://www.w3.org/TR/2001/REC-SVG-20010904/DTD/svg10.dtd">
<svg version="1.0" xmlns="http://www.w3.org/2000/svg"
 width="512.000000pt" height="512.000000pt" viewBox="0 0 512.000000 512.000000"
 preserveAspectRatio="xMidYMid meet">

<g transform="translate(0.000000,512.000000) scale(0.100000,-0.100000)"
fill="gray" stroke="none">
<path d="M2360 4803 c-479 -32 -873 -121 -1237 -278 -470 -203 -830 -516
-1002 -869 -45 -94 -71 -167 -102 -291 -8 -35 -13 -203 -16 -565 -6 -671 5
-781 96 -975 78 -166 202 -318 343 -418 93 -66 238 -133 353 -163 84 -21 135
-27 320 -34 277 -10 393 -35 570 -122 142 -70 214 -121 380 -273 255 -233 472
-356 774 -439 154 -43 283 -60 461 -60 295 1 517 50 775 174 570 274 954 803
1031 1418 17 142 20 1096 4 1250 -39 361 -195 682 -456 938 -399 393 -1071
651 -1834 704 -134 9 -353 11 -460 3z m602 -318 c620 -69 1174 -295 1484 -603
272 -271 405 -643 365 -1016 -48 -441 -291 -839 -664 -1090 -266 -178 -531
-261 -837 -260 -415 1 -725 129 -1064 439 -205 187 -375 293 -593 368 -166 58
-283 78 -518 87 -233 9 -303 23 -415 79 -83 42 -112 63 -184 131 -151 143
-229 325 -229 535 1 342 198 647 584 904 373 248 878 403 1449 445 103 7 494
-4 622 -19z m-2585 -2127 c54 -48 162 -118 228 -148 164 -73 251 -90 505 -100
281 -11 406 -38 591 -130 126 -62 206 -120 359 -261 52 -48 127 -111 165 -141
460 -354 1085 -460 1639 -276 114 38 328 141 426 205 161 106 358 291 469 441
30 39 55 72 56 72 2 0 1 -19 -2 -42 -52 -460 -291 -851 -677 -1110 -451 -301
-1013 -338 -1497 -97 -121 60 -246 149 -379 271 -196 179 -310 258 -479 332
-209 92 -365 125 -646 136 -240 10 -287 19 -421 85 -176 86 -323 259 -378 445
-33 111 -59 354 -39 373 7 8 20 -1 80 -55z"/>
<path d="M2300 4200 c-628 -55 -1174 -268 -1471 -573 -130 -134 -200 -263
-221 -406 -26 -183 67 -365 231 -455 72 -39 161 -56 296 -56 353 -1 674 -89
969 -268 116 -69 216 -147 346 -268 176 -163 308 -244 491 -303 125 -39 182
-50 303 -57 352 -22 710 132 956 411 181 205 287 458 306 728 19 267 -94 550
-293 738 -210 198 -631 384 -1041 460 -255 47 -642 69 -872 49z m475 -300
c475 -35 887 -168 1169 -376 138 -102 218 -228 252 -394 45 -226 -44 -506
-228 -715 -104 -118 -305 -241 -458 -280 -109 -27 -250 -30 -361 -7 -197 41
-336 116 -504 274 -173 163 -313 264 -495 361 -308 162 -660 247 -1031 247
-93 0 -110 3 -139 23 -56 38 -75 72 -74 133 2 72 41 147 121 234 316 341 1050
551 1748 500z"/>
<path d="M3195 3300 c-197 -26 -375 -141 -448 -289 -28 -58 -32 -75 -32 -151
0 -76 3 -92 33 -152 62 -126 201 -229 372 -274 80 -21 281 -24 360 -6 188 45
330 146 393 280 28 59 32 77 32 152 0 75 -4 93 -32 152 -98 208 -378 327 -678
288z m217 -301 c104 -22 198 -90 198 -141 0 -31 -78 -100 -136 -121 -152 -54
-360 -19 -438 73 -33 40 -33 60 0 100 67 79 234 119 376 89z"/>
</g>
</svg>
