<?xml version="1.0" standalone="no"?>
<!DOCTYPE svg PUBLIC "-//W3C//DTD SVG 20010904//EN"
 "http://www.w3.org/TR/2001/REC-SVG-20010904/DTD/svg10.dtd">
<svg version="1.0" xmlns="http://www.w3.org/2000/svg"
 width="512.000000pt" height="512.000000pt" viewBox="0 0 512.000000 512.000000"
 preserveAspectRatio="xMidYMid meet">

<g transform="translate(0.000000,512.000000) scale(0.100000,-0.100000)"
fill="gray" stroke="none">
<path d="M1750 5101 c-48 -26 -72 -62 -78 -119 -5 -60 12 -98 68 -142 59 -47
84 -101 84 -180 0 -86 -26 -135 -104 -195 -139 -107 -210 -247 -210 -415 0
-143 48 -258 151 -362 99 -99 178 -113 254 -47 77 68 69 153 -21 238 -64 61
-84 101 -84 169 0 80 15 104 121 202 85 79 104 103 139 173 100 204 67 437
-86 597 -90 94 -163 120 -234 81z"/>
<path d="M2500 5101 c-48 -26 -72 -62 -78 -119 -5 -60 12 -98 68 -142 59 -47
84 -101 84 -180 0 -86 -26 -135 -104 -195 -139 -107 -210 -247 -210 -415 0
-143 48 -258 151 -362 99 -99 178 -113 254 -47 77 68 69 153 -21 238 -64 61
-84 101 -84 169 0 80 15 104 121 202 85 79 104 103 139 173 100 204 67 437
-86 597 -90 94 -163 120 -234 81z"/>
<path d="M3250 5101 c-48 -26 -72 -62 -78 -119 -5 -60 12 -98 68 -142 59 -47
84 -101 84 -180 0 -86 -26 -135 -104 -195 -139 -107 -210 -247 -210 -415 0
-143 48 -258 151 -362 99 -99 178 -113 254 -47 77 68 69 153 -21 238 -64 61
-84 101 -84 169 0 80 15 104 121 202 85 79 104 103 139 173 100 204 67 437
-86 597 -90 94 -163 120 -234 81z"/>
<path d="M2307 3300 c-346 -37 -637 -120 -942 -270 -271 -133 -485 -288 -695
-501 l-115 -116 -78 -17 c-119 -27 -209 -77 -298 -165 -187 -187 -230 -451
-113 -691 45 -92 159 -209 250 -258 41 -21 64 -40 67 -55 3 -12 45 -220 92
-462 97 -495 107 -527 200 -624 62 -66 152 -115 235 -131 72 -14 3228 -14
3301 0 85 16 169 62 233 129 94 100 104 130 201 626 47 242 89 450 92 462 3
15 26 34 67 55 90 48 204 165 250 258 117 240 74 504 -113 691 -89 88 -179
138 -298 165 l-78 17 -120 121 c-401 405 -904 657 -1490 747 -150 23 -506 33
-648 19z m603 -315 c560 -85 1072 -361 1417 -764 35 -41 73 -81 84 -89 12 -8
60 -18 106 -23 189 -17 297 -126 298 -299 0 -99 -34 -173 -107 -230 -82 -65
-178 -84 -274 -55 -120 36 -190 2 -233 -115 -26 -70 -87 -135 -160 -169 -45
-21 -71 -26 -131 -26 -95 0 -149 24 -228 98 -84 80 -131 101 -222 101 -91 0
-138 -21 -222 -101 -79 -74 -133 -98 -228 -98 -95 0 -149 24 -228 98 -84 80
-131 101 -222 101 -91 0 -138 -21 -222 -101 -79 -74 -133 -98 -228 -98 -95 0
-149 24 -228 98 -84 80 -131 101 -222 101 -91 0 -138 -21 -222 -101 -79 -74
-133 -98 -228 -98 -60 0 -86 5 -132 27 -74 34 -132 95 -158 166 -45 120 -111
153 -238 116 -142 -42 -293 29 -356 165 -32 71 -29 179 7 253 50 102 157 168
273 168 76 0 112 20 172 94 129 158 355 349 554 468 316 188 611 283 1038 332
78 9 440 -4 540 -19z m-1978 -2004 c90 -45 192 -71 278 -71 137 0 296 61 395
151 l55 51 55 -51 c99 -90 258 -151 395 -151 137 0 296 61 395 151 l55 51 55
-51 c99 -90 258 -151 395 -151 137 0 296 61 395 151 l55 51 55 -51 c99 -90
258 -151 395 -151 158 0 323 71 438 188 41 41 72 66 69 56 -3 -10 -38 -185
-78 -387 -77 -395 -83 -413 -149 -448 -33 -18 -97 -19 -1630 -19 -1533 0
-1597 1 -1630 19 -66 35 -72 53 -149 448 -40 202 -75 376 -78 387 -3 10 29
-15 70 -57 57 -57 96 -85 159 -116z"/>
<path d="M1895 2694 c-44 -23 -343 -322 -366 -366 -10 -21 -19 -51 -19 -68 0
-50 35 -107 80 -130 89 -46 129 -25 323 168 161 160 197 207 197 262 0 106
-122 182 -215 134z"/>
<path d="M2490 2691 c-19 -10 -45 -36 -57 -57 -21 -36 -23 -51 -23 -223 0
-209 9 -240 80 -280 48 -27 92 -27 140 0 71 40 80 71 80 278 0 162 -2 186 -20
221 -36 71 -129 100 -200 61z"/>
<path d="M3088 2689 c-67 -35 -96 -124 -62 -192 22 -44 321 -344 366 -368 47
-24 81 -24 135 0 74 34 103 124 64 199 -24 45 -324 344 -368 366 -42 21 -90
20 -135 -5z"/>
</g>
</svg>
