<?xml version="1.0" standalone="no"?>
<!DOCTYPE svg PUBLIC "-//W3C//DTD SVG 20010904//EN"
 "http://www.w3.org/TR/2001/REC-SVG-20010904/DTD/svg10.dtd">
<svg version="1.0" xmlns="http://www.w3.org/2000/svg"
 width="512.000000pt" height="512.000000pt" viewBox="0 0 512.000000 512.000000"
 preserveAspectRatio="xMidYMid meet">

<g transform="translate(0.000000,512.000000) scale(0.100000,-0.100000)"
fill="#000000" stroke="none">
<path d="M78 5100 c-43 -23 -78 -82 -78 -130 0 -50 35 -107 80 -130 36 -18 58
-20 285 -20 l245 0 0 -150 0 -150 -245 0 c-227 0 -249 -2 -285 -20 -45 -23
-80 -80 -80 -130 0 -50 35 -107 80 -130 36 -18 58 -20 285 -20 l245 0 0 -150
0 -150 -245 0 c-227 0 -249 -2 -285 -20 -45 -23 -80 -80 -80 -130 0 -50 35
-107 80 -130 36 -18 58 -20 285 -20 l245 0 0 -906 0 -907 -54 -66 c-111 -136
-169 -251 -213 -420 -20 -75 -26 -130 -30 -253 l-6 -158 -94 0 c-115 0 -162
-19 -193 -80 -46 -89 -4 -302 89 -460 98 -164 249 -281 441 -342 l75 -23 1935
0 1935 0 75 23 c192 61 343 178 441 342 93 158 135 371 89 460 -31 61 -78 80
-195 80 l-95 0 0 109 c0 316 -92 560 -294 778 -67 72 -67 72 -56 110 104 365
37 783 -177 1108 -88 133 -245 290 -378 378 -334 220 -741 282 -1120 172 -167
-49 -306 -120 -456 -232 l-61 -46 -77 12 c-156 25 -305 25 -444 2 -70 -12
-152 -31 -182 -41 l-55 -19 0 189 0 189 288 3 c251 4 296 7 357 24 136 40 243
105 350 213 l59 61 1067 0 c683 0 1086 4 1120 10 186 35 330 184 361 374 38
231 -126 461 -361 506 -34 6 -437 10 -1120 10 l-1067 0 -59 61 c-107 108 -212
172 -350 213 -69 20 -91 21 -1055 23 -966 2 -986 2 -1022 -17z m1132 -820 c0
-522 -1 -542 -20 -580 -23 -45 -80 -80 -130 -80 -50 0 -107 35 -130 80 -19 38
-20 58 -20 580 l0 540 150 0 150 0 0 -540z m600 90 l0 -450 -150 0 -150 0 0
450 0 450 150 0 150 0 0 -450z m372 388 c156 -83 251 -280 220 -458 -23 -134
-109 -259 -220 -318 -33 -18 -63 -32 -66 -32 -3 0 -6 189 -6 420 0 231 3 420
6 420 3 0 33 -14 66 -32z m2558 -258 c45 -23 80 -80 80 -130 0 -50 -35 -107
-80 -130 -39 -20 -57 -20 -1037 -20 l-998 0 0 150 0 150 998 0 c980 0 998 0
1037 -20z m-3680 -1175 c36 0 84 4 108 8 l42 9 0 -125 0 -124 -74 -57 c-40
-31 -108 -92 -150 -136 l-76 -80 0 261 0 261 43 -9 c23 -4 71 -8 107 -8z
m2243 -16 c573 -85 972 -608 897 -1176 -6 -43 -13 -83 -15 -89 -2 -8 -30 -2
-84 17 -44 16 -109 33 -144 39 l-64 11 10 57 c11 68 2 218 -16 287 -72 262
-280 470 -542 541 -121 33 -298 27 -418 -14 l-52 -18 -60 49 c-33 26 -93 69
-132 94 -40 26 -73 50 -73 54 0 13 184 97 261 118 144 40 296 51 432 30z
m-1200 -300 c415 -62 750 -354 865 -754 39 -132 42 -198 42 -779 l0 -566 -149
0 -150 0 -4 598 c-3 641 -2 620 -57 752 -74 176 -231 330 -410 403 -107 43
-149 51 -280 51 -129 0 -185 -10 -295 -56 -125 -51 -273 -181 -348 -304 -20
-33 -49 -100 -66 -149 -29 -89 -30 -90 -68 -98 -40 -9 -225 -68 -256 -81 -17
-8 -17 -4 -11 45 42 338 206 605 486 786 198 128 469 187 701 152z m1138 -299
c240 -46 403 -280 360 -519 l-13 -71 -143 0 -143 0 -11 68 c-26 154 -92 337
-164 456 -20 33 -34 63 -31 68 7 11 80 10 145 -2z m-1200 -300 c85 -16 173
-63 235 -124 61 -62 108 -150 124 -235 6 -32 10 -269 10 -597 l0 -544 -150 0
-150 0 0 545 c0 527 -1 547 -20 585 -13 26 -34 47 -60 60 -36 18 -58 20 -265
20 -124 0 -225 3 -225 6 0 25 73 133 114 170 112 101 246 141 387 114z m-231
-740 l0 -150 -239 0 c-131 0 -262 -5 -292 -10 -136 -26 -263 -122 -319 -242
-37 -80 -50 -146 -50 -264 l0 -94 -151 0 -152 0 6 148 c6 150 16 204 57 302
74 174 228 327 405 402 53 22 86 31 190 52 11 2 138 4 283 5 l262 1 0 -150z
m2135 128 c271 -81 466 -277 542 -543 8 -27 17 -116 20 -197 l6 -148 -152 0
-151 0 0 94 c0 51 -5 117 -10 147 -34 180 -179 325 -359 359 -30 5 -161 10
-292 10 l-239 0 0 151 0 151 293 -5 c220 -3 304 -8 342 -19z m-2135 -733 l0
-155 -300 0 -300 0 0 95 c0 115 19 164 78 194 34 18 58 20 280 21 l242 0 0
-155z m2020 135 c61 -31 80 -78 80 -195 l0 -95 -300 0 -300 0 0 155 0 155 240
0 c222 0 244 -2 280 -20z m960 -595 c0 -3 -10 -26 -22 -51 -29 -62 -118 -157
-182 -193 -113 -65 15 -61 -2026 -61 -2041 0 -1913 -4 -2026 61 -64 36 -153
131 -182 193 -12 25 -22 48 -22 51 0 3 1003 5 2230 5 1227 0 2230 -2 2230 -5z"/>
</g>
</svg>
