<svg xmlns="http://www.w3.org/2000/svg" width="192" height="192" viewBox="0 0 192 192" version="1.1"><path d="M 51.545 24.344 C 49.725 25.675, 49.723 26.902, 51.536 32.750 C 52.200 34.892, 51.973 35, 46.828 35 C 43.397 35, 39.990 35.731, 37.500 37 C 33.794 38.889, 31 39.554, 31 38.547 C 31 38.298, 31.516 36.961, 32.147 35.577 C 33.575 32.443, 31.910 30, 28.346 30 C 25.367 30, 24.336 32.404, 25.731 36.099 C 26.495 38.121, 26.479 39.007, 25.675 39.275 C 25.062 39.479, 24.077 41.639, 23.488 44.073 C 22.481 48.229, 22.189 48.519, 18.708 48.810 C 16.669 48.981, 15 49.310, 15 49.541 C 15 49.772, 16.590 52.447, 18.534 55.485 L 22.068 61.010 21.784 71.755 L 21.500 82.500 17.250 82.164 C 14.854 81.975, 13 82.265, 13 82.830 C 13 83.381, 14.800 85.258, 17 87 L 21 90.168 21 123.525 C 21 144.684, 21.366 157.108, 22 157.500 C 22.658 157.907, 23 148.177, 23 129.059 L 23 100 26.532 100 C 28.475 100, 31.704 99.315, 33.709 98.477 C 38.186 96.607, 39.207 97.669, 38.536 103.500 C 38.283 105.700, 37.819 118.975, 37.504 133 C 37.190 147.025, 36.672 160.412, 36.353 162.750 L 35.773 167 40.136 167.001 L 44.500 167.001 44.176 133.862 C 43.998 115.635, 44.126 99.634, 44.460 98.303 C 44.986 96.208, 45.565 95.925, 48.784 96.192 L 52.500 96.500 52.293 122.500 C 52.179 136.800, 51.815 152.662, 51.483 157.750 L 50.879 167 55.190 167.001 L 59.500 167.001 59.176 133.862 C 58.998 115.635, 59.119 99.660, 59.445 98.361 L 60.038 96 92.952 96 C 125.846 96, 125.866 96.001, 126.554 98.170 C 127.212 100.242, 126.676 125.314, 125.364 153.814 L 124.752 167.127 128.990 166.814 L 133.229 166.500 133.364 131.500 L 133.500 96.500 137.165 96.195 C 140.117 95.949, 140.955 96.283, 141.472 97.912 C 141.990 99.544, 141.420 119.752, 139.623 163.500 C 139.506 166.353, 139.715 166.515, 143.902 166.815 L 148.304 167.130 147.588 133.813 C 147.195 115.488, 147.160 99.746, 147.512 98.830 C 148.096 97.308, 148.464 97.296, 151.790 98.685 C 153.950 99.588, 156.967 99.999, 159.214 99.698 L 163 99.190 163 132.154 C 163 153.875, 163.341 164.907, 164 164.500 C 164.637 164.106, 165 150.528, 165 127.057 L 165 90.233 169 86.619 C 171.200 84.631, 173 82.779, 173 82.503 C 173 82.226, 170.975 82, 168.500 82 L 164 82 164.023 71.250 C 164.045 60.756, 164.127 60.369, 167.479 55 L 170.912 49.500 167.216 49 C 164.526 48.636, 163.422 47.956, 163.163 46.500 C 162.966 45.400, 162.400 44.073, 161.903 43.550 C 161.406 43.028, 161 41.790, 161 40.800 C 161 39.806, 160.273 39, 159.378 39 C 158.079 39, 157.994 38.713, 158.950 37.560 C 159.607 36.769, 159.999 34.856, 159.822 33.310 C 159.549 30.926, 159.045 30.500, 156.500 30.500 C 153.626 30.500, 153.504 30.678, 153.585 34.728 C 153.666 38.779, 153.562 38.930, 151.085 38.343 C 149.663 38.007, 147.790 37.117, 146.921 36.366 C 145.987 35.558, 143.027 35, 139.671 35 C 134.078 35, 132.577 33.880, 134.914 31.450 C 135.797 30.532, 136.353 27.713, 136.115 25.357 C 135.936 23.579, 133.069 22.893, 130.827 24.093 C 128.777 25.190, 128.713 27.015, 130.523 32.750 L 131.233 35 93.117 35 C 60.596 35, 55 34.788, 55 33.559 C 55 32.766, 55.396 31.873, 55.881 31.574 C 57.510 30.567, 57.783 25.926, 56.301 24.444 C 54.516 22.659, 53.867 22.646, 51.545 24.344 M 31.502 48.219 C 30.403 48.856, 27.308 49.724, 24.625 50.148 C 21.942 50.572, 19.535 51.131, 19.276 51.390 C 19.017 51.650, 19.621 53.243, 20.618 54.931 C 22.196 57.602, 22.990 58, 26.748 58 C 29.122 58, 32.680 57.325, 34.654 56.500 C 37.697 55.229, 46.581 55, 92.911 55 C 145.603 55, 147.719 55.072, 151.500 57 C 153.658 58.100, 157.091 59, 159.130 59 C 162.298 59, 163.156 58.484, 165.033 55.447 C 166.240 53.493, 167.013 51.680, 166.751 51.417 C 166.488 51.154, 163.657 50.514, 160.460 49.994 C 157.263 49.473, 154.187 48.587, 153.624 48.024 C 152.094 46.494, 34.153 46.682, 31.502 48.219 M 39 66.500 C 39 74.278, 39.272 76, 40.500 76 C 41.462 76, 42.011 75.014, 42.032 73.250 C 42.075 69.514, 44.192 67, 47.295 67 C 50.178 67, 53.065 65.885, 57.500 63.058 C 60.291 61.280, 62.786 61.141, 93.250 61.073 C 111.589 61.032, 126 61.389, 126 61.883 C 126 62.369, 126.787 63.051, 127.750 63.399 C 128.713 63.747, 130.625 64.693, 132 65.501 C 133.375 66.309, 135.800 66.977, 137.390 66.985 C 140.786 67.003, 142.924 69.403, 142.968 73.250 C 142.992 75.323, 143.493 76, 145 76 C 146.860 76, 147 75.333, 147 66.500 L 147 57 93 57 L 39 57 39 66.500 M 34 59 C 32.625 59.440, 29.813 59.845, 27.750 59.900 L 24 60 24 71.155 C 24 81.898, 24.067 82.249, 25.829 80.655 C 26.835 79.745, 28.635 79, 29.829 79 C 31.032 79, 31.889 78.443, 31.750 77.750 C 31.609 77.047, 32.703 76.362, 34.250 76.184 L 37 75.867 37 66.934 C 37 62.020, 36.888 58.045, 36.750 58.100 C 36.612 58.155, 35.375 58.560, 34 59 M 149 67.051 C 149 75.960, 149.011 76, 151.531 76 C 152.924 76, 154.322 76.675, 154.638 77.500 C 154.955 78.325, 155.918 79, 156.778 79 C 157.639 79, 159.165 79.745, 160.171 80.655 C 161.932 82.248, 162 81.914, 162 71.655 L 162 61 158.968 61 C 157.300 61, 154.375 60.348, 152.468 59.551 L 149 58.102 149 67.051 M 34.250 79.250 C 34.395 79.975, 33.239 80.640, 31.500 80.834 C 29.850 81.017, 27.825 81.748, 27 82.457 C 26.175 83.166, 23.765 84.058, 21.644 84.439 L 17.788 85.130 21.144 87.644 C 23.918 89.722, 25.325 90.082, 29.260 89.724 C 31.878 89.486, 34.839 88.551, 35.839 87.646 C 37.481 86.160, 43.031 86, 93 86 C 142.969 86, 148.519 86.160, 150.161 87.646 C 151.161 88.551, 154.122 89.485, 156.740 89.722 C 160.926 90.101, 161.922 89.787, 165 87.117 L 168.500 84.081 164.372 84.041 C 162.042 84.018, 159.724 83.372, 159.048 82.558 C 158.390 81.765, 156.422 80.977, 154.676 80.808 C 152.787 80.625, 151.601 79.993, 151.750 79.250 C 151.948 78.261, 139.667 78, 93 78 C 46.333 78, 34.052 78.261, 34.250 79.250 M 36.745 89.684 C 35.671 90.757, 32.874 91.526, 29.030 91.804 C 23.553 92.200, 23 92.449, 23 94.513 C 23 98.483, 28.289 99.167, 34.500 96 C 38.282 94.072, 40.397 94, 93.589 94 C 140.965 94, 148.928 94.208, 149.978 95.474 C 151.491 97.296, 157.137 98.433, 160.493 97.591 C 162.326 97.131, 163 96.295, 163 94.481 C 163 92.188, 162.639 92, 158.250 91.996 C 155.269 91.994, 152.281 91.249, 150.226 89.996 C 147.060 88.066, 145.158 88, 92.690 88 C 43.156 88, 38.282 88.147, 36.745 89.684 M 89.655 102.829 C 88.306 104.320, 88 106.907, 88 116.829 L 88 129 93 129 L 98 129 98 116.571 C 98 106.606, 97.689 103.831, 96.429 102.571 C 94.341 100.484, 91.686 100.584, 89.655 102.829 M 70.169 108.528 C 69.536 109.919, 68.338 111.317, 67.509 111.635 C 66.330 112.087, 66 114.048, 66 120.607 L 66 129 71.500 129 L 77 129 77 117.500 L 77 106 74.161 106 C 72.094 106, 71.008 106.688, 70.169 108.528 M 79 117.500 L 79 129 82.500 129 L 86 129 86 117.500 L 86 106 82.500 106 L 79 106 79 117.500 M 100 117.500 L 100 129 103.500 129 L 107 129 107 117.500 L 107 106 103.500 106 L 100 106 100 117.500 M 109 117.500 L 109 129 114.500 129 L 120 129 120 120.607 C 120 114.048, 119.670 112.087, 118.491 111.635 C 117.662 111.317, 116.464 109.919, 115.831 108.528 C 114.992 106.688, 113.906 106, 111.839 106 L 109 106 109 117.500 M 66.227 148.750 L 66.500 166.500 71.750 166.802 L 77 167.105 77 149.052 L 77 131 71.477 131 L 65.954 131 66.227 148.750 M 79.227 148.750 L 79.500 166.500 82.750 166.813 L 86 167.127 86 149.063 L 86 131 82.477 131 L 78.954 131 79.227 148.750 M 88.227 148.750 L 88.500 166.500 93.250 166.805 L 98 167.110 98 149.055 L 98 131 92.977 131 L 87.954 131 88.227 148.750 M 100 149 L 100 167 103.500 167 L 107 167 107 149 L 107 131 103.500 131 L 100 131 100 149 M 109 149.052 L 109 167.105 114.250 166.802 L 119.500 166.500 119.773 148.750 L 120.046 131 114.523 131 L 109 131 109 149.052 M 36.109 171.490 L 40.500 174.981 96 174.981 L 151.500 174.981 155.891 171.490 L 160.281 168 96 168 L 31.719 168 36.109 171.490" stroke="none" fill="#d6a756" fill-rule="evenodd"/><path d="M 77.113 1.486 C 57.012 6.031, 41.647 14.318, 27.982 27.982 C 16.172 39.792, 8.550 52.659, 3.350 69.564 C 0.797 77.864, 0.601 79.745, 0.601 96 C 0.601 112.255, 0.797 114.136, 3.350 122.436 C 6.497 132.667, 10.843 141.910, 16.541 150.497 L 20.500 156.462 20.775 123.481 L 21.051 90.500 17.010 87 C 14.787 85.075, 12.976 83.124, 12.985 82.664 C 12.993 82.204, 14.912 81.979, 17.250 82.164 L 21.500 82.500 21.784 71.755 L 22.068 61.010 18.534 55.485 C 16.590 52.447, 15 49.772, 15 49.541 C 15 49.310, 16.669 48.981, 18.708 48.810 C 22.189 48.519, 22.481 48.229, 23.488 44.073 C 24.077 41.639, 25.062 39.479, 25.675 39.275 C 26.479 39.007, 26.495 38.121, 25.731 36.099 C 24.336 32.404, 25.367 30, 28.346 30 C 31.910 30, 33.575 32.443, 32.147 35.577 C 31.516 36.961, 31 38.298, 31 38.547 C 31 39.554, 33.794 38.889, 37.500 37 C 39.990 35.731, 43.397 35, 46.828 35 C 51.977 35, 52.200 34.893, 51.523 32.750 C 49.713 27.015, 49.777 25.190, 51.827 24.093 C 54.069 22.893, 56.936 23.579, 57.115 25.357 C 57.353 27.713, 56.797 30.532, 55.914 31.450 C 52.653 34.840, 54.328 35, 93.117 35 L 131.233 35 130.523 32.750 C 128.713 27.015, 128.777 25.190, 130.827 24.093 C 133.069 22.893, 135.936 23.579, 136.115 25.357 C 136.353 27.713, 135.797 30.532, 134.914 31.450 C 132.577 33.880, 134.078 35, 139.671 35 C 143.027 35, 145.987 35.558, 146.921 36.366 C 147.790 37.117, 149.663 38.007, 151.085 38.343 C 153.562 38.930, 153.666 38.779, 153.585 34.728 C 153.504 30.678, 153.626 30.500, 156.500 30.500 C 159.045 30.500, 159.549 30.926, 159.822 33.310 C 159.999 34.856, 159.607 36.769, 158.950 37.560 C 157.994 38.713, 158.079 39, 159.378 39 C 160.273 39, 161 39.806, 161 40.800 C 161 41.790, 161.406 43.028, 161.903 43.550 C 162.400 44.073, 162.966 45.400, 163.163 46.500 C 163.422 47.956, 164.526 48.636, 167.216 49 L 170.912 49.500 167.479 55 C 164.127 60.369, 164.045 60.756, 164.023 71.250 L 164 82 168.500 82 C 170.975 82, 173 82.209, 173 82.464 C 173 82.719, 171.188 84.632, 168.973 86.714 L 164.945 90.500 165.223 126.957 L 165.500 163.413 170.577 156.957 C 180.454 144.394, 186.479 132.009, 189.593 117.865 C 190.485 113.814, 191.616 109.719, 192.107 108.764 C 193.372 106.303, 193.272 81.714, 192 82.500 C 191.437 82.848, 191 82.048, 191 80.671 C 191 76.640, 186.128 61.090, 182.660 54.049 C 172.879 34.196, 157.804 19.121, 137.951 9.340 C 125.158 3.038, 115.209 0.781, 98.500 0.392 C 87.908 0.145, 81.623 0.466, 77.113 1.486 M 31.502 48.219 C 30.403 48.856, 27.308 49.724, 24.625 50.148 C 21.942 50.572, 19.535 51.131, 19.276 51.390 C 19.017 51.650, 19.621 53.243, 20.618 54.931 C 22.196 57.602, 22.990 58, 26.748 58 C 29.122 58, 32.680 57.325, 34.654 56.500 C 37.697 55.229, 46.581 55, 92.911 55 C 145.603 55, 147.719 55.072, 151.500 57 C 153.658 58.100, 157.091 59, 159.130 59 C 162.298 59, 163.156 58.484, 165.033 55.447 C 166.240 53.493, 167.013 51.680, 166.751 51.417 C 166.488 51.154, 163.657 50.514, 160.460 49.994 C 157.263 49.473, 154.187 48.587, 153.624 48.024 C 152.094 46.494, 34.153 46.682, 31.502 48.219 M 39 66.500 C 39 74.278, 39.272 76, 40.500 76 C 41.462 76, 42.011 75.014, 42.032 73.250 C 42.075 69.514, 44.192 67, 47.295 67 C 50.178 67, 53.065 65.885, 57.500 63.058 C 60.291 61.280, 62.786 61.141, 93.250 61.073 C 111.589 61.032, 126 61.389, 126 61.883 C 126 62.369, 126.787 63.051, 127.750 63.399 C 128.713 63.747, 130.625 64.693, 132 65.501 C 133.375 66.309, 135.800 66.977, 137.390 66.985 C 140.786 67.003, 142.924 69.403, 142.968 73.250 C 142.992 75.323, 143.493 76, 145 76 C 146.860 76, 147 75.333, 147 66.500 L 147 57 93 57 L 39 57 39 66.500 M 34 59 C 32.625 59.440, 29.813 59.845, 27.750 59.900 L 24 60 24 71.155 C 24 81.898, 24.067 82.249, 25.829 80.655 C 26.835 79.745, 28.635 79, 29.829 79 C 31.032 79, 31.889 78.443, 31.750 77.750 C 31.609 77.047, 32.703 76.362, 34.250 76.184 L 37 75.867 37 66.934 C 37 62.020, 36.888 58.045, 36.750 58.100 C 36.612 58.155, 35.375 58.560, 34 59 M 149 67.051 C 149 75.960, 149.011 76, 151.531 76 C 152.924 76, 154.322 76.675, 154.638 77.500 C 154.955 78.325, 155.918 79, 156.778 79 C 157.639 79, 159.165 79.745, 160.171 80.655 C 161.932 82.248, 162 81.914, 162 71.655 L 162 61 158.968 61 C 157.300 61, 154.375 60.348, 152.468 59.551 L 149 58.102 149 67.051 M 34.250 79.250 C 34.395 79.975, 33.239 80.640, 31.500 80.834 C 29.850 81.017, 27.825 81.748, 27 82.457 C 26.175 83.166, 23.765 84.058, 21.644 84.439 L 17.788 85.130 21.144 87.644 C 23.918 89.722, 25.325 90.082, 29.260 89.724 C 31.878 89.486, 34.839 88.551, 35.839 87.646 C 37.481 86.160, 43.031 86, 93 86 C 142.969 86, 148.519 86.160, 150.161 87.646 C 151.161 88.551, 154.122 89.485, 156.740 89.722 C 160.926 90.101, 161.922 89.787, 165 87.117 L 168.500 84.081 164.372 84.041 C 162.042 84.018, 159.724 83.372, 159.048 82.558 C 158.390 81.765, 156.422 80.977, 154.676 80.808 C 152.787 80.625, 151.601 79.993, 151.750 79.250 C 151.948 78.261, 139.667 78, 93 78 C 46.333 78, 34.052 78.261, 34.250 79.250 M 0.392 96 C 0.392 103.425, 0.549 106.463, 0.742 102.750 C 0.934 99.037, 0.934 92.963, 0.742 89.250 C 0.549 85.537, 0.392 88.575, 0.392 96 M 36.745 89.684 C 35.671 90.757, 32.874 91.526, 29.030 91.804 C 23.553 92.200, 23 92.449, 23 94.513 C 23 98.483, 28.289 99.167, 34.500 96 C 38.282 94.072, 40.397 94, 93.589 94 C 140.965 94, 148.928 94.208, 149.978 95.474 C 151.491 97.296, 157.137 98.433, 160.493 97.591 C 162.326 97.131, 163 96.295, 163 94.481 C 163 92.188, 162.639 92, 158.250 91.996 C 155.269 91.994, 152.281 91.249, 150.226 89.996 C 147.060 88.066, 145.158 88, 92.690 88 C 43.156 88, 38.282 88.147, 36.745 89.684 M 44.460 98.303 C 44.126 99.634, 43.998 115.635, 44.176 133.862 L 44.500 167.001 40.136 167.001 L 35.773 167 36.353 162.750 C 36.672 160.412, 37.190 147.025, 37.504 133 C 37.819 118.975, 38.283 105.700, 38.536 103.500 C 39.207 97.669, 38.186 96.607, 33.709 98.477 C 31.704 99.315, 28.475 100, 26.532 100 L 23 100 23 129.712 L 23 159.424 27.208 163.712 L 31.416 168 96.008 168 C 144.913 168, 160.891 167.709, 161.800 166.800 C 162.685 165.915, 163 156.888, 163 132.395 L 163 99.190 159.214 99.698 C 156.967 99.999, 153.950 99.588, 151.790 98.685 C 148.464 97.296, 148.096 97.308, 147.512 98.830 C 147.160 99.746, 147.195 115.488, 147.588 133.813 L 148.304 167.130 143.902 166.815 C 139.715 166.515, 139.506 166.353, 139.623 163.500 C 141.420 119.752, 141.990 99.544, 141.472 97.912 C 140.955 96.283, 140.117 95.949, 137.165 96.195 L 133.500 96.500 133.364 131.500 L 133.229 166.500 128.990 166.814 L 124.752 167.127 125.364 153.814 C 126.676 125.314, 127.212 100.242, 126.554 98.170 C 125.866 96.001, 125.846 96, 92.952 96 L 60.038 96 59.445 98.361 C 59.119 99.660, 58.998 115.635, 59.176 133.862 L 59.500 167.001 55.190 167.001 L 50.879 167 51.483 157.750 C 51.815 152.662, 52.179 136.800, 52.293 122.500 L 52.500 96.500 48.784 96.192 C 45.565 95.925, 44.986 96.208, 44.460 98.303 M 89.655 102.829 C 88.306 104.320, 88 106.907, 88 116.829 L 88 129 93 129 L 98 129 98 116.571 C 98 106.606, 97.689 103.831, 96.429 102.571 C 94.341 100.484, 91.686 100.584, 89.655 102.829 M 70.169 108.528 C 69.536 109.919, 68.338 111.317, 67.509 111.635 C 66.330 112.087, 66 114.048, 66 120.607 L 66 129 71.500 129 L 77 129 77 117.500 L 77 106 74.161 106 C 72.094 106, 71.008 106.688, 70.169 108.528 M 79 117.500 L 79 129 82.500 129 L 86 129 86 117.500 L 86 106 82.500 106 L 79 106 79 117.500 M 100 117.500 L 100 129 103.500 129 L 107 129 107 117.500 L 107 106 103.500 106 L 100 106 100 117.500 M 109 117.500 L 109 129 114.500 129 L 120 129 120 120.607 C 120 114.048, 119.670 112.087, 118.491 111.635 C 117.662 111.317, 116.464 109.919, 115.831 108.528 C 114.992 106.688, 113.906 106, 111.839 106 L 109 106 109 117.500 M 66.227 148.750 L 66.500 166.500 71.750 166.802 L 77 167.105 77 149.052 L 77 131 71.477 131 L 65.954 131 66.227 148.750 M 79.227 148.750 L 79.500 166.500 82.750 166.813 L 86 167.127 86 149.063 L 86 131 82.477 131 L 78.954 131 79.227 148.750 M 88.227 148.750 L 88.500 166.500 93.250 166.805 L 98 167.110 98 149.055 L 98 131 92.977 131 L 87.954 131 88.227 148.750 M 100 149 L 100 167 103.500 167 L 107 167 107 149 L 107 131 103.500 131 L 100 131 100 149 M 109 149.052 L 109 167.105 114.250 166.802 L 119.500 166.500 119.773 148.750 L 120.046 131 114.523 131 L 109 131 109 149.052 M 46.346 178.530 C 53.700 182.965, 61.679 186.335, 71.684 189.235 C 78.399 191.181, 81.824 191.500, 96 191.500 C 110.176 191.500, 113.601 191.181, 120.316 189.235 C 130.321 186.335, 138.300 182.965, 145.654 178.530 L 151.500 175.005 96 175.005 L 40.500 175.005 46.346 178.530" stroke="none" fill="#7e5605" fill-rule="evenodd"/></svg>